<svg width="44" height="45" viewBox="0 0 44 45" fill="none" xmlns="http://www.w3.org/2000/svg">
<path d="M16.6015 39.4946C16.4771 39.6191 16.3357 39.6813 16.1773 39.6813C16.0302 39.67 15.9001 39.6077 15.787 39.4946L6.9962 30.7039L6.40224 35.2689C6.36829 35.4386 6.29475 35.5688 6.18162 35.6593C6.05717 35.7385 5.90443 35.7667 5.72341 35.7441L4.09424 35.5405C3.92453 35.5065 3.78877 35.4273 3.68695 35.3029C3.59644 35.1671 3.56815 35.0144 3.60209 34.8447L4.46759 28.1074C4.47891 27.9829 4.51285 27.8811 4.56941 27.8019C4.62598 27.7227 4.69386 27.6435 4.77306 27.5643L6.26647 26.0709C6.37961 25.9578 6.51537 25.9012 6.67376 25.9012C6.83216 25.9012 6.96792 25.9578 7.08106 26.0709L18.1459 37.1357C18.259 37.2488 18.3156 37.3846 18.3156 37.543C18.3156 37.7014 18.259 37.8372 18.1459 37.9503L16.6015 39.4946ZM25.4923 30.9433C24.689 31.7466 23.8857 32.3123 23.0824 32.6404C22.2792 32.9685 21.4872 33.1042 20.7066 33.0477C19.9259 32.9911 19.1736 32.7818 18.4495 32.4197C17.7141 32.0464 17.0183 31.5656 16.3621 30.9772C16.0453 30.6831 15.7002 30.3606 15.3269 30.0099C14.9535 29.6366 14.5802 29.2632 14.2068 28.8899C13.8448 28.5052 13.511 28.1488 13.2056 27.8207C12.6059 27.1758 12.1308 26.4857 11.78 25.7503C11.418 25.0036 11.2144 24.2456 11.1691 23.4763C11.1352 22.6956 11.2822 21.9037 11.6103 21.1004C11.9384 20.2971 12.4928 19.5051 13.2735 18.7245C14.0654 17.9325 14.863 17.3725 15.6663 17.0444C16.4696 16.7163 17.2559 16.5749 18.0252 16.6201C18.8059 16.6541 19.5639 16.8577 20.2993 17.2311C21.0347 17.5818 21.7248 18.057 22.3697 18.6566C22.7091 18.9508 23.0655 19.2845 23.4388 19.6579C23.8122 20.0312 24.1855 20.4046 24.5589 20.7779C24.9209 21.14 25.2434 21.485 25.5262 21.8131C26.1258 22.458 26.6123 23.1482 26.9857 23.8835C27.3477 24.6076 27.557 25.36 27.6136 26.1406C27.6702 26.9213 27.5287 27.7189 27.1893 28.5335C26.8612 29.3368 26.2955 30.14 25.4923 30.9433ZM23.5406 28.9917C24.276 28.2563 24.5759 27.4813 24.4401 26.6667C24.3043 25.8295 23.8291 24.9923 23.0146 24.1551C22.7091 23.8044 22.3923 23.4649 22.0642 23.1368C21.7248 22.7974 21.3854 22.458 21.046 22.1186C20.7066 21.7792 20.3728 21.4681 20.0447 21.1852C19.2301 20.3933 18.4042 19.9294 17.567 19.7936C16.7298 19.6353 15.9435 19.9238 15.2081 20.6591C14.484 21.3832 14.1955 22.1695 14.3426 23.0181C14.4897 23.844 14.9535 24.6699 15.7342 25.4958C16.0397 25.8012 16.3564 26.1293 16.6845 26.48C17.024 26.8195 17.3634 27.1589 17.7028 27.4983C18.0422 27.8151 18.3759 28.1375 18.704 28.4656C19.5526 29.2689 20.3954 29.7384 21.2327 29.8742C22.0586 29.9986 22.8279 29.7045 23.5406 28.9917ZM32.7765 23.3197C32.5389 23.5573 32.307 23.5629 32.0807 23.3366C32.0128 23.2688 31.9732 23.1839 31.9619 23.0821L29.2975 3.68474C29.2749 3.50372 29.2749 3.34533 29.2975 3.20956C29.3201 3.0738 29.405 2.93237 29.5521 2.7853L30.4515 1.88586C30.6891 1.64827 30.921 1.64261 31.1473 1.86889C31.2152 1.93677 31.2548 2.02162 31.2661 2.12344L33.9305 21.5208C33.9531 21.7018 33.9531 21.8602 33.9305 21.996C33.9192 22.1204 33.8343 22.2618 33.6759 22.4202L32.7765 23.3197ZM41.0411 15.2587C40.2831 16.0167 39.4742 16.407 38.6144 16.4296C37.7545 16.4523 36.9625 16.1468 36.2385 15.5132C35.933 15.2304 35.6728 14.9815 35.4578 14.7665C35.2429 14.5516 34.9827 14.28 34.6772 13.9519C34.0436 13.2279 33.7268 12.4472 33.7268 11.61C33.7381 10.7615 34.1398 9.94122 34.9317 9.14926C35.735 8.34599 36.5553 7.94435 37.3925 7.94435C38.241 7.93303 39.0216 8.24982 39.7344 8.8947C40.0738 9.18886 40.351 9.44341 40.566 9.65838C40.7809 9.87334 41.0242 10.1392 41.2957 10.456C41.9406 11.1688 42.2461 11.9607 42.2121 12.8319C42.1895 13.6917 41.7992 14.5006 41.0411 15.2587ZM39.7174 13.935C39.9663 13.6861 40.1078 13.4428 40.1417 13.2052C40.187 12.9563 40.1643 12.7187 40.0738 12.4925C39.9833 12.2662 39.8589 12.0739 39.7005 11.9155C39.4403 11.61 39.214 11.3611 39.0216 11.1688C38.818 10.9651 38.5748 10.7445 38.2919 10.5069C38.0204 10.258 37.7036 10.0996 37.3416 10.0317C36.9682 9.95253 36.6005 10.094 36.2385 10.456C35.8877 10.8067 35.752 11.1688 35.8312 11.5421C35.8991 11.9041 36.0518 12.2266 36.2894 12.5094C36.5383 12.781 36.7646 13.0185 36.9682 13.2222C37.1605 13.4145 37.4038 13.6465 37.6979 13.918C37.879 14.0538 38.0769 14.1725 38.2919 14.2744C38.5182 14.3649 38.7501 14.3932 38.9877 14.3592C39.2366 14.314 39.4798 14.1725 39.7174 13.935ZM28.2623 16.0223C27.5043 16.7804 26.7067 17.182 25.8695 17.2272C25.0322 17.2725 24.2516 16.9783 23.5275 16.3448C23.2221 16.0619 22.9618 15.813 22.7469 15.5981C22.5206 15.3718 22.2547 15.0946 21.9493 14.7665C21.3157 14.0424 20.9989 13.2618 20.9989 12.4246C21.0102 11.576 21.4119 10.7558 22.2038 9.96385C23.0071 9.16057 23.8273 8.75894 24.6645 8.75894C25.5131 8.74762 26.2937 9.06441 27.0065 9.70929C27.3459 10.0034 27.6287 10.2637 27.855 10.4899C28.07 10.7049 28.3132 10.9708 28.5847 11.2875C29.2296 12.0003 29.5238 12.781 29.4672 13.6295C29.422 14.4667 29.0203 15.2643 28.2623 16.0223ZM27.0065 14.7665C27.2554 14.5176 27.3968 14.2744 27.4307 14.0368C27.476 13.7879 27.4534 13.5503 27.3629 13.324C27.2724 13.0977 27.1423 12.8998 26.9725 12.73C26.7123 12.4246 26.4861 12.1757 26.2937 11.9833C26.0901 11.7797 25.8468 11.5591 25.564 11.3215C25.2925 11.0726 24.9757 10.9142 24.6136 10.8463C24.2516 10.7784 23.8896 10.9255 23.5275 11.2875C23.1768 11.6383 23.0354 11.9947 23.1033 12.3567C23.1711 12.7187 23.3295 13.0355 23.5784 13.307C23.8273 13.5786 24.0536 13.8162 24.2573 14.0198C24.4496 14.2121 24.6928 14.4441 24.987 14.7156C25.168 14.874 25.366 15.0041 25.581 15.1059C25.8072 15.1964 26.0392 15.2247 26.2768 15.1908C26.5257 15.1455 26.7689 15.0041 27.0065 14.7665Z" fill="white"/>
</svg>
